# xmcd
#
# Track frame offsets:
#	150
#	22605
#	38147
#	57465
#	90077
#	117785
#	135425
#	156612
#
# Disc length: 2537 seconds
#
# Revision: 2
# Processed by: cddbd v1.4PL0 Copyright (c) Steve Scherf et al.
# Submitted via: MusicWizard 6.0.0
#
DISCID=5709e708
DTITLE=Cheatham Jeannie and Jimmy - Sweet Baby Blues
DYEAR=1984
DGENRE=Blues
TTITLE0=Brand New Blues Blues
TTITLE1=Roll 'em Pete
TTITLE2=Sweet Baby Blues
TTITLE3=I Got a Mine To Ramble
TTITLE4=Ain't Nobody's Business
TTITLE5=Muddy Water Blues
TTITLE6=Cherry Red
TTITLE7=Meet Me With Your Black Drawers On
EXTD=Jeannie Cheatham p, voc - Jimmy Cheatham btb - Red Callender b, tu - John "Ironman" Harris dr - C
EXTD=harles McPherson as - Jimmie Noone ss, cl - Curtis Peagler as, ts - Snooky Young tp;
EXTT0=
EXTT1=
EXTT2=
EXTT3=
EXTT4=
EXTT5=
EXTT6=
EXTT7=
PLAYORDER=
